# xmcd
#
# Track frame offsets: 
#        150
#        18960
#        30955
#        41608
#        58854
#        70369
#        89542
#        102676
#        121417
#        135876
#
# Disc length: 2063 seconds
#
# Revision: 0
# Processed by: cddbd v1.5.2PL0 Copyright (c) Steve Scherf et al.
# Submitted via: ExactAudioCopy v0.95b4
#
DISCID=83080d0a
DTITLE=Ella Fitsgerald - Ella Fitzgerald - Original Hits
DYEAR=2002
DGENRE=Blues
TTITLE0=C-Jam Blues
TTITLE1=Close To You
TTITLE2=Perdido
TTITLE3=Lil' Darlin'
TTITLE4=Manteca
TTITLE5=Mas Que Nada
TTITLE6=St. Louis Blues
TTITLE7=They Can't Take That Away From Me
TTITLE8=Things Ain't What They Used To Be
TTITLE9=Willow Weep For Me
EXTD=
EXTT0=
EXTT1=
EXTT2=
EXTT3=
EXTT4=
EXTT5=
EXTT6=
EXTT7=
EXTT8=
EXTT9=
PLAYORDER=
